<?xml version="1.0" encoding="UTF-8"?>
<svg id="Layer_1" data-name="Layer 1" xmlns="http://www.w3.org/2000/svg" viewBox="0 0 431.64 269.75">
  <defs>
    <style>
      .cls-1 {
        fill: #6ab7b7;
      }

      .cls-2 {
        fill: #8dccdb;
      }

      .cls-3 {
        fill: #ebf7ff;
      }
    </style>
  </defs>
  <rect class="cls-2" x="-39.52" y="-10.66" width="525" height="293.78"/>
  <path class="cls-1" d="M8.28.02c2.95,8.65,1.21,15.84,5.45,24.08,2.24,4.35,10.28,11.31,14.27,14.44,2.17,1.69,3.64,3.5,4.95,5.91,2.81,5.18,7.7,7.11,13.21,4.22,5.58-6.6,12.15-11.92,19.58-16.31,3.64-2.15,6.52-4.67,8.83-8.21,1.28-1.96,2.65-3.77,3.75-5.9,3.74-7.22,8.79-10.64,7.28-18.22h21.94c.67,2.98,1.71,5.88,3.17,8.76,4.48,6.8,10.52,12.05,17.28,16.52,2.26,1.49,4.27,2.9,6.78,3.98,4.82,2.08,9.26,4.55,13.95,6.94,5.66,2.89,10.11,3.56,16.3,2.94,1.44-.14,2.78-1.46,3.8-2.31,2.13-1.78,1.19-10.82,1.16-13.82-.06-5.41,2.5-10.86,5.72-14.97L182.01.02h9.35c-11.82,8.88-21.88,30.83-9.2,42.96,2.04,1.95,9.47,6.53,13.5,9.92,3.04,2.56,5.76,5.11,8.53,7.98l6.91,7.18c3.11,3.22,12.16,6.15,17.49,2.65,4.81-3.16,5.21-6.01,9-10.51,3.02-3.57,5.81-7.24,9.3-10.38,1.22-1.09,2.05-2.25,3.01-3.54,2.36-3.17,4.31-6.54,4.38-10.66.14-8.52-1.3-10.62-4.43-18.24-1.11-2.7-2.63-5.34-5-7.2-4.38-3.44-8.87-6.47-12.85-10.16h8.99c3.51,2.96,7.44,5.59,10.21,9.54s4.94,8.3,6.48,12.77c1.22,3.56,2.54,6.35,5.02,9.2s6.2,5.45,10.21,3.93l5.17-1.95c8.03-3.03,5.58-4.23,11.62-5.29,3.09-.54,6.13-1.27,9.33-.99,7.92.71,10.24-3.61,13.84-8.96,1.88-2.79,4.49-5.22,5.32-8.6.79-3.23-.36-6.51-.23-9.65h19.78c-.73,4.94-.12,9.94,1.69,14.77.41,1.1.47,2.43,1.06,3.39l5.82,9.55c1.63,2.67,2.86,5.45,4.5,8.15,3.88,6.42,2.64,8.22,7.02,14.65,3.39,4.97,8.99,7.85,14.96,9.11,5.17,1.09,10.72.08,15.13-2.94,2.78-1.91,5.31-4.05,7.5-6.61,5.77-6.72,12.86-11.66,19.22-17.7l8.5-8.06c3.29-3.12,6.07-6.28,8.48-9.95v7.11c-2.81.76-4.98,3.06-6.02,6.08-1.29,3.74.26,10.83,6.02,11.4v7.24c-1.28.02-2.59.32-3.98-.45-13.45,1.38-15.6.78-26.85,7.83-3.54,2.22-7.14,6.65-9.26,10.28s-3.42,7.39-3.04,11.69c.35,3.96.73,7.9,1.9,11.69.79,2.53,1.83,4.86,1.74,7.57,3.92,16.49.79,18.68,10.94,33.35,5.12,7.39,7.37,6.41,12.64,12.16,3.04,3.32,6.88,5.46,10.79,7.58,1.8.97,3.22,2.38,5.12,2.73v5.17c-3.2-.59-6.17,1.02-8.83,2.86-1.32.92-2.12,1.61-2.82,3.13-3.04,6.6-2.18,14.27-5.06,18.17-8.42,11.4-9.93,7.29-6.28,22.79l.94,4.01c1.05,4.46,2.98,8.63,4.38,13.04.57,1.81,2.16,3.11,3.35,4.42,1.66,1.83,3.36,3.51,5.72,4.06,3,.7,5.77,1.07,8.6.39v8.24c-1.3.22-2.33,1.08-3.45,1.91l-4.95,3.64c-5.06,3.71-8.64,20.63-10.21,27.13h-7.63c3.41-7.01,6.33-14.12,7.5-21.85.57-3.74,1.4-7.4.64-11.07l-1.61-7.78c-.45-2.19-2.02-3.99-2.95-5.98l-4.3-9.29c-3.16-6.83-2.53-13.31-8.09-21.77-2.5-3.8-6.88-5.32-10.96-6.37-2.26-.58-4.11-1.31-6.52-1.22-2.23.09-4.54-.34-6.8.26-4.92,1.29-7.11,6.07-16.55,7.48l-3.98.59c-2.36.35-11.14.34-13.63-.99s-4.57-1.4-7.22-1.54c-4.23-.24-8.32-.08-11.95,2.18-2.47,1.54-4.64,3.15-6.65,5.28-1.62,1.71-3.74,3.03-4.93,5.15-1.91,3.41-3.09,7.3-3.11,11.27-.02,4.91,3.02,6.55,2.79,14.05-.39,12.42.07,16.15,4.87,27.48,1.6,3.77,4.51,6.46,7.13,9.49,1.8,2.08,4.14,2.8,6.37,4.69-5.57-.37-10.89.67-15.99-.34-3.77-1.26-6.85-4.5-10.41-6.28-3.32-1.66-6.63-2.41-10.29-3.03-15.07-2.52-18.3-2.28-32.19-8.86-2.46-1.17-5.19-1.88-7.44-3.38-5.06-3.39-11.01-4.86-16.94-1.9-1.93.96-4.64,2.78-5.77,4.84-3.01,5.49-2,13.04-2.69,18.94l-33.76.03c-6.83-3.75-6.71-5.83-15-7l-6.68-.94c-4.74-.67-10.01-.94-14.25-3.39-3.81-2.2-8.19-3.07-11.52.81-1.2,1.4-.97,8.11-1.91,10.48l-5.8.03c1.51-8.93.98-16.32-.55-25.19-.52-3-1.95-5.57-3.14-8.31-1.52-3.51-3.7-9.05-7.05-11.38-2.58-1.8-9.6-6.49-12.44-6.58l-18.82-.63c-3.55-.12-7.08-.18-10.5.64-6.19,1.48-15.86,5.32-21.34,8.48-4.04,2.32-7.53,5.36-10.95,8.48l-3.56,3.26c-2.9,2.65-5.52,5.49-8.08,8.49-3.36,3.93-5.34,8.7-7.71,13.28l-4.86,9.4-8.7.03c.95-1.53,1.45-2.97,2.37-4.27,2.1-2.97,3.45-6.13,5.15-9.3,2.24-4.16,3.79-8.44,5.41-12.84,1.49-4.05,1.68-7.72.94-11.94-.49-2.79-.96-5.19-2.29-7.8-4.04-7.91-8.41-7.6-14.19-12.53l-3.28-2.8c-2.52-2.14-4.74-4.3-6.63-7.02L-.01,194.49l.11-22.31c4.45,1.83,8.49,3.09,12.79,4.19l6.28,1.61c10.34,2.65,14.76,4.07,25.73,3.04,4.66-.44,9.12-2.09,13.22-4.26,2.94-1.56,5.22-3.86,7.66-6.05,2.8-2.53,4.22-6.03,5.73-9.37,2.17-4.8,2.67-9.46,2.06-14.71-.85-7.28-2.35-14.57-7-20.5-4.72-6.03-15.35-11.02-22.72-11.72l-14.28-1.37c-2.58-.25-4.84-1.75-7.16-2.8-8.72-3.99-15.44-4.27-22.34-11.78-.1-2.64-.15-5.12.03-7.9,7.46,6.26,15.76,11.23,25.48,12.83,2.82.46,6.38-.25,8.66-1.83s3.03-4.71,3.59-7.29l1.86-8.62c1.68-7.79-.82-25.23-5.79-32.14-3.21-4.46-7.61-7.71-11.33-11.68-3.06-3.26-10.31-8.54-14.17-11.05-2.81-1.83-5.82-3.02-8.38-5.27L0,.02h8.27ZM99.36,30.33c3.96-10.28,8.87-8.14,9.22-12.4.28-3.42-2.43-6.15-5.75-6.34-1.16-.07-2.4-.71-3.52-.31-2.48.87-4.97,1.87-7.26,2.93-2.44,1.13-3.4,3.02-4.24,5.34-1.97,5.5-2.94,12.97,3.45,15.75,3.17.38,6.89-1.83,8.1-4.97ZM320.73,39.06c1.01-8.29,7.03-11.11,2.16-16.57-2.45-.72-4.94.16-6.55,2.12-.42.52-1.13.78-1.45,1.44-2.02,4.13-3.12,8.77-2.51,13.44.22,1.71,1.13,3.41,1.86,4.87.61,1.22,1.96,1.72,3.09,1.6,2.81-.29,3.12-4.67,3.4-6.91ZM183.32,114.12c3.71-.72,6.37-2.49,8.71-5.3,3.01-3.61,5.01-7.83,6.95-12.16,1.26-2.82,2.74-5.45,3.21-8.54,1.17-7.64,1.84-16.69-3.52-22.74-2.12-4.79-6.12-7.68-10.74-9.88-5.3-2.53-11.08-5.47-17.1-6.31-7.9-1.1-15.6-2.73-22.99-5.65-3.57-1.41-6.35-3.23-9.36-5.43-3.95-2.88-7.94-5.46-12.12-8.03-3.85-2.37-8.12-3.96-12.59-4.04-2.2-.04-3.69,1.87-5.06,3.08-6.35,5.61-4.13,14.95-.86,21.61,2.67,5.44,4.52,11.07,7.88,16.21,7.12,10.91,8.75,9.51,20.18,11.31,6.06.95,11.9,3.67,15.67,8.61,2.06,2.7,4.95,10.83,7.71,15.28,4.37,7.02,6.81,9.52,14.85,12.18,2.97.99,6.01.41,9.18-.21ZM366.77,128.26c3.41-2.1,6.55-4.38,9.73-6.86,6.01-4.7,9.2-8.69,10.55-16.46.16-4.43-.55-8.53-1.4-12.93s-2.66-8.64-5.43-12.19c-2.17-2.79-4.76-5.43-7.72-7.31l-8.63-5.48c-1.81-1.15-3.55-1.99-5.29-3.35-3.62-2.83-7.29-6.16-8.4-10.9-1.46-6.25-2.66-12.35-5.19-18.22-1.92-4.44-6.19-9.88-11.78-8.49-3.42.85-6.9,8.32-7.45,11.61-1.07,6.37-.08,9.19-2.78,15.52-1.31,3.06-2.34,6.04-3.99,8.96-3.53,6.23-4.63,13.32-4.21,20.56.23,3.89,2.42,7.01,4.52,10.2,1.44,2.19,3.65,3.49,5.53,5.29,2.32,2.23,4.77,4.28,6.84,6.78,12.39,14.91,6.14,24.97,22.25,26.33,4.68.4,8.93-.62,12.86-3.05ZM275.52,113.79c10.81-1.2,13.72-2.26,23.14-7.5,4.52-4.7,6.8-6.56,8.96-12.72,1.4-4,2.75-7.89,2.62-12.14-.18-6.2-.67-12.18-1.91-18.29l-1.81-8.96c-1.12-5.56-2.48-9.64-6.11-14-1.45-1.74-4.24-2.92-6.46-2.9-5.35.06-8.79,5.61-20.56,5.28-2.03-.06-4.11.84-6.15,1.14-4.73.7-8.77,3.29-12.74,5.7-2.03,1.23-3.46,2.72-5.21,4.22-4.77,4.11-8.65,8.71-10.94,14.68-.99,2.6-1.98,5.08-1.96,8.02.11,11.68,7.12,23.25,15.11,31.43,2.63,2.7,6.09,3.93,9.69,4.72,4.7,1.03,9.35,1.87,14.31,1.32ZM120.74,134.5c1.59-2.58,3.65-4.36,5.76-6.26l6.82-6.13,8.91-8.68c2.7-2.63,7.19-9.41,7.09-13.51-.08-3.17-1.9-6.63-3.91-8.98-4.04-4.72-9.88-6.62-15.87-7.01-1.35-.09-2.66-.03-4.02-.29-4.36-.84-8.55-3.29-11.31-6.78-3.6-4.55-5.91-9.67-7.61-15.13-.5-1.61-1.26-3.01-1.83-4.54-1.3-3.52-3.34-6.3-5.75-9.04-2.13-2.43-4.66-3.78-7.41-5.37-8.18-4.73-18.92-6.69-26.94-.81-2.35,1.72-4.79,3.32-6.88,5.4-6.82,6.78-11.62,16.2-13.2,25.7-1.02,6.13-1.67,12.08-1.32,18.28.3,5.41,1.87,13.86,6.54,16.97,4.93,3.28,15.2,7.33,20.32,12.15,5.16,5.54,4.73,13.57,11.02,17.08,8.26,4.6,16.64,8.65,26.36,7.39,4.1-.53,7.23-3.09,9.75-6.14,1.16-1.4,2.44-2.6,3.47-4.28ZM219.97,114.32c3.14-.31,6.05-1.37,8.01-3.67,2.84-3.32,4.69-7.66,4.79-12.1.04-1.56-.74-3.05-.96-4.55-.45-3.07-2.39-5.48-4.6-7.57l-4.71-4.46c-2.04-1.93-6.39-3.5-9.21-2.45-3.73,1.38-5.28,5.82-5.69,9.32-.33,2.78-.72,5.04-2.07,7.37l-3.56,6.17c-1.21,2.09-1.64,4.8-.73,6.93,3.11,7.24,12.07,7.16,18.71,5.01ZM284.2,189.01l10.77.52c3.53.17,6.91-1.09,10.32-1.98,5.78-1.5,10.85-4.36,16.03-7.2,7.45-4.07,11.62-9.39,15.42-16.83,1.34-2.63,2.02-5.19,2.74-8.04,2.34-9.31.56-10.49.47-18.16l-.05-3.9c-.07-5.65-3.75-15.32-7.45-20.58s-8.39-9.39-14.98-10.55c-3.33-.58-6.46,1.18-8.79,3.42s-4.31,4.23-6.87,6.09c-.83.6-1.32,1.52-2.31,2.1-4.58,2.67-9.57,4.84-15.04,5.29-6.06.49-12.1.53-18.06-.44l-9.03-1.47-11.26-3.03c-4.46-1.2-9.49.75-13.37,3.33-3.52,2.35-5.85,5.67-8.54,8.91-3.15,12.83.04,22.79,5.54,34.19,1.05,2.17,2.05,4.02,3.78,5.64,2.46,3.59,5.04,7.2,8.65,9.77,5.9,4.19,12.58,6.56,19.62,8.1,7.32,2.65,14.59,4.44,22.39,4.82ZM214.16,207.38c2.07-.27,3.75-1.45,5.31-2.33,1.79-1,2.19-2.74,2.88-4.47l3.47-8.69c1.64-4.1,2.37-8.04,2.12-12.47-.17-2.93-.07-5.69-.97-8.59-3.05-9.8-5.36-19.56-7.88-29.51-.76-3.01-1.86-5.76-3.06-8.6-1.51-3.59-4-6.93-6.99-9.4-2.38-1.95-5.59-2.21-8.42-2.8-10.51-2.22-20.45,2.51-25.07,1.66-4.26-.79-8.25-2.14-12.34-3.46-4.66-.48-9,.73-13.43,1.77-3.43.81-6.13,2.15-9.15,3.83-5.56,3.09-9.92,7.11-12.74,12.87-1.22,2.49-2.68,4.78-2.81,7.67-.19,4.16.27,7.91,1.56,11.85,1.61,4.94,3.53,9.61,6.8,13.72,3.55,4.46,10.06,8.67,15.25,11.06,16.32,7.52,20.46.57,35.84,13.04l7.96,6.45c4.27,3.46,9.71,5.26,15.05,6.44,2.1.46,4.39.25,6.63-.04ZM365.38,179.02c2.39-1.61,5.24-1.94,7.97-2.5,3.77-.78,7-.07,10.42,1.53,4.21,1.98,9.08,2.63,13.62,3.03,3.37.3,5.61-.86,8.19-2.49,2.2-1.39,4.14-2.38,5.38-4.91.76-1.56,2-2.99,2.1-5,.11-2.15.89-4.04,1.34-6.21.82-3.95.14-8.49-2.1-11.87-1.26-1.91-1.97-4.19-3.49-5.84l-8.98-9.75c-1.54-1.67-2.34-3.26-3.44-5.3-2.35-4.35-8.68-8.52-14.08-6.46-3,1.53-4.7,4.43-7.23,6.45-7.82,6.25-17.35,5.51-21.78,7.36-2.62,1.1-4.92,3.34-6.48,5.69-3.05,4.58-1.26,9.95-3.94,17.7-.75,2.17-1.32,4.25-2.43,6.28-.61,1.11-.81,2.35-1.51,3.48-1.76,2.86-2.6,6.35-1.63,9.59,1.05,3.53,4,5.82,7.62,6.18,2.64.26,5.28.83,7.91.21,5.78-1.36,8.31-4.32,12.54-7.16ZM39.93,224.51c7.96,1.26,15.9-2.43,22.77-5.36l8.11-3.46c4.95-2.11,10.19-3.01,15.44-3.94l7.66-1.37c3.24-.58,6.68-.94,9.59-2.71,6.22-3.78,11.97-8.27,16.98-13.54,2.05-2.16,3.24-5.03,4.5-7.71,2.09-4.44,1.59-9.63.28-14.21-.3-1.06-.26-2-.65-2.96-1.18-2.95-2.53-5.71-4.13-8.45-4.23-4.64-9.46-7.66-15.41-9.56-2.65-.84-5.2-.53-7.95-.77-4.35-.38-8.57,0-12.22,2.77-2.49.84-4.85,2.95-5.42,5.66-1.85,8.88-6.49,14.47-13.16,20.32-2.17,1.9-3.69,4.41-6.2,5.97-4.61,2.86-9.99,4.15-15.47,4.33-6.66.21-13.09.14-19.61-1.03-4.58-.82-9.98-3.96-13.95-.49-2.76,2.42-2.41,7.1-.24,10.05,5.56,7.54,12.77,14.39,19.95,20.32,2.83,2.34,5.62,4.62,9.14,6.16ZM126.78,215c1.95,1.92,5.12,2.6,7.36,1.05,2.01-1.4,2.78-3.97,3.01-6.36.37-3.75.53-7.41.53-11.21v-8.31c0-1.1-.32-2.64-1.34-3.12-6.1-2.88-7.43,9.66-10.07,12.91-2.21,2.73-6.85,6.86-4.42,11.21,1.05,1.88,2.78,2.99,4.92,3.83ZM284.34,252.96c4.64.32,10.18.38,13.64-2.95,2.73-2.63,2.22-7.43,2.41-10.83.21-3.66.01-6.71-1.59-10.01s-3.28-6.35-5.7-9.08c-4.13-4.66-8.82-8.75-14.02-12.22-3.24-2.16-6.59-3.69-9.26-6.58-1.44-1.55-2.58-3.36-4.18-4.83-2.66-2.44-5.81-4.21-9.2-5.51-3.67-1.41-7.56-1.41-11.46-1.54-5.19-.17-10.8,2.26-13.99,6.28-1.89,3.51-2.41,7.37-2.72,11.41s-1.5,8.26-.64,12.39,3.76,7.56,6.33,10.79c2.4,3.03,5.2,5.15,8.47,7.17,4.13,2.56,8.09,5.08,12.58,7.17,5.15,2.39,10.35,4.42,15.7,6.44,4.38,1.65,8.79,1.58,13.64,1.92ZM206.58,266.29c4.57-.45,8.91-4.17,11.39-7.88,6-8.99,5.47-18.96,1.01-28.53l-8.25-8.7c-1.2-1.26-11.04-6.86-13.27-8.05l-13.05-6.96c-5.98-3.19-4.88-7.53-18.06-12.87-7.9-3.2-13.29-3.95-19.98,1.51-5.68,4.63-3.47,13.69-5.37,20.25-.84,2.9-2.35,5.56-2.86,8.62-.64,3.85-.9,7.79-.53,11.66.31,3.25,2.18,5.98,3.86,8.59s3.69,4.46,6.07,6.3c1.07.82,1.82,1.68,3.21,2.16,11.1,3.82,13.02,1.42,23.05,4.67,2.35.76,4.8,1.13,6.91,2.47,8.76,5.57,15.03,7.8,25.87,6.74ZM295.46,212.8c2.77.36,3.56-1.79,4.76-3.35,2.44-3.17,3.21-6.84.96-10.54-.94-1.54-2.93-2.52-4.87-2.92-3.76-.78-12.52-2.55-14.66,1.34-.61,1.12-.15,3.18.49,4.2,1.98,3.2,6.36,4.14,9.33,7.62,1.12,1.31,2.24,2.97,3.99,3.65Z"/>
  <path class="cls-3" d="M394.07,269.73h-14.12c1.04-4.75,4.04-4.48,6.55-9.37,3.48-6.8,6.23-13.94,7.43-21.53.59-3.74,1.39-7.4.64-11.07l-1.6-7.71c-.46-2.21-2.03-4.03-2.96-6.05l-4.3-9.29c-3.18-6.87-2.49-13.21-8.08-21.77-2.5-3.82-6.89-5.28-10.96-6.38-2.5-.68-4.57-1.32-7.22-1.21-2.39.1-4.89-.39-7.09.56-5.32,2.31-6.91,5.89-15.56,7.17l-3.98.59c-2.4.36-11.08.34-13.63-.99s-4.57-1.42-7.21-1.54c-4.25-.19-8.34-.11-11.96,2.18-2.46,1.56-4.64,3.13-6.66,5.27-1.72,1.84-4.01,3.25-5.16,5.54-5.75,11.48-1.27,15.16-.34,20.53.76,4.38-.68,13.03,1.13,20.54.95,3.94,2.41,7.66,4.01,11.35,1.45,3.36,7.49,10.65,10.14,11.92,4.75,2.28,6.53,6.6,17,8.86,3.58.77,7.35,2.39,10.9,2.39h-25.48c-7.59-4.6-15.32-8.88-22.79-13.97-2.83-1.93-5.69-3.32-9.08-3.92l-20.14-3.6c-4.34-.78-8.23-2.51-12.21-4.3l-11.65-5.21c-4.68-3.66-10.9-4.52-16.41-1.81-2.05,1.01-4.65,2.79-5.81,4.86-3.3,5.86-1.97,16.48-2.67,18.62l-3.08,9.33h-18.77c-.55-1.04-1.56-1.76-2.59-2.58-4.31-3.41-9.08-5.93-13.57-9.1-2.99-2.11-5.87-3.6-9.59-4.13l-7.22-1.03c-4.99-.71-10.39-1.03-14.87-3.43-3.25-1.73-6.19-3.04-9.77-.78-.99.62-2.16,1.47-2.35,2.99l-.89,7.32c-.46,3.8-1.26,7.32-2.59,10.74h-5.31c.64-2.77,1.01-5.59,1.49-8.57l.93-5.86c1.06-6.68-.16-13.36-1.36-20.07-.52-2.89-1.94-5.36-3.07-8-1.51-3.52-3.73-9.07-7.05-11.38-2.59-1.8-9.61-6.49-12.44-6.58l-18.82-.63c-3.56-.12-7.08-.17-10.5.64-6.14,1.45-15.88,5.36-21.34,8.48-4.05,2.32-7.54,5.35-10.95,8.48l-3.55,3.26c-2.9,2.66-5.52,5.5-8.09,8.48-3.4,3.94-5.6,8.55-7.75,13.3-2.57,5.69-7.01,12.04-8.3,18.45H.11v-12.22c.6-.28.42-1.19.81-1.73,2.01-2.73,3.13-5.74,4.73-8.65,2.28-4.14,3.8-8.45,5.42-12.84,1.5-4.06,1.75-7.75.91-11.99-.51-2.55-.75-4.9-2.05-7.26-3.21-5.82-4.28-6.33-9.83-10.02v-6.11l7.06,6.65,4.93,4.04c6.98,5.72,8.69,7.35,17.57,5.62,11.71-2.27,16.83-8.56,37.63-12.38l9.75-1.79c2.63-.48,5.39-.93,7.73-2.41,6.08-3.85,11.8-8.18,16.73-13.44,2.04-2.17,3.24-5.02,4.5-7.71,2.07-4.43,1.61-9.63.26-14.21-.31-1.04-.16-2.03-.63-2.99-1.35-2.76-2.25-5.92-4.23-8.35-3.95-4.85-9.49-7.67-15.29-9.64-2.67-.91-5.26-.45-7.94-.77-4.53-.53-8.42.27-12.33,2.63-2.27,1.37-4.79,2.83-5.37,5.83-1.72,8.95-6.71,14.59-13.3,20.46-2.09,1.86-3.58,4.28-6.03,5.8-4.62,2.87-9.99,4.14-15.48,4.33-6.67.23-13.08.08-19.61-1-2.14-.35-3.97-1.38-5.96-1.54v-8.99c4.82,1.19,9.64,2.57,14.76,3.2,3.25.4,6.43.03,9.74-.03,4.47-.09,8.57-1.68,12.68-3.41,3.61-1.52,6.42-4.22,9.35-6.84,2.8-2.51,4.33-5.92,5.81-9.32,2.07-4.77,3.07-9.68,2.02-14.89-.33-7.51-2.64-14.38-6.68-20.66-2.85-2.52-5.48-5.11-8.87-6.94-9.64-5.2-17.67-5.13-28.3-5.97-4.79-1.08-6.65-3.04-10.5-4.88v-6.47l5.92,1.61c2.92.79,6.72-.01,9.28-1.82,2.4-1.7,3.05-4.9,3.63-7.59l1.8-8.31c1.71-7.88-.78-24.59-5.63-31.95-2.54-3.86-11.76-11.57-15.01-15.58v-7.19c.63.02.97.59,1.47,1.08,2.36,2.33,4.87,4.44,7.47,6.51,2.17,1.72,3.61,3.49,4.96,5.92,1.42,2.55,3.66,4.89,6.75,5.44,1.65.3,5.04.08,6.32-1.31,5.9-6.38,12.17-11.88,19.73-16.23,3.62-2.08,6.55-4.69,8.8-8.21.94-1.47,2.05-2.75,2.88-4.32,2.01-3.8,4.27-7.25,6.78-10.8h26.63c4.49,6.67,10.45,11.86,17.15,16.28,2.26,1.49,4.27,2.91,6.78,3.98,4.73,2.07,9.11,4.44,13.71,6.83,5.69,2.96,10.28,3.68,16.53,3.05,1.43-.14,2.8-1.44,3.79-2.32,1.92-1.7,1.4-9.55,1.2-12.16-.45-5.75,1.59-11.16,5.17-15.64,2.6.03,4.91-.19,7.34.12-.85,2.16-1.8,3.53-2.65,5.3-2.45,5.13-4.04,10.64-3.5,16.42.42,4.53,2.52,8.97,5.79,12.1,2.04,1.95,9.48,6.53,13.5,9.92,3.04,2.56,5.77,5.11,8.53,7.98l6.91,7.18c3.1,3.22,12.16,6.15,17.49,2.65,4.81-3.16,5.2-6,9.01-10.51,3.02-3.57,5.81-7.24,9.3-10.38,1.22-1.09,2.05-2.25,3.01-3.54,2.36-3.17,4.31-6.54,4.38-10.66.15-8.75-1.38-10.7-4.53-18.47-1.29-3.19-3.3-5.94-6.04-7.92,2.61-.41,4.76-.2,7.38-.15,2.57,4.42,5.28,8.85,6.8,13.78,1.97,6.36,8.42,15.09,15.02,12.6l5.18-1.95c8.06-3.04,5.55-4.22,11.63-5.29,2.69-.48,5.33-1.16,8.2-1.01s5.86.26,8.55-1.39c2.9-1.78,4.51-4.84,6.42-7.53,2.15-3.03,4.54-5.68,5.71-9.3l19.06.06c1.15,3.17,1.34,6.57,3.01,9.33l5.65,9.34c1.62,2.68,2.87,5.44,4.5,8.16,3.92,6.56,2.67,8.25,7.02,14.65,3.39,4.97,8.99,7.85,14.96,9.11,5.17,1.09,10.71.07,15.13-2.94,2.79-1.91,5.28-4.07,7.5-6.61,5.59-6.4,11.67-11.99,18.48-17.05,1.84-1.36,3.23-3,4.85-4.54l8.28-7.91c3.35-3.2,5.28-7.45,7.34-11.55l16.32-.03-.11,8.86c-4.94-3.88-13.8.79-18.63,3.23-3.5,1.76-6.75,4.45-6.7,8.78.03,2.67.52,5.92,2.82,7.54,2.72,1.91,6.21,2.49,9.45,2.77l7.03.6c2.09.18,3.98.32,6.1-.11.02,3.19.24,5.91-.13,9.15-6.8-3.18-13.57-3.73-20.7-3.65-2.37.03-4.53-.49-6.99-.01-3.33.64-6.72.58-10.04,1.55-4.38,1.27-8.2,3.47-11.99,5.9-3.58,2.3-7.11,6.58-9.26,10.28s-3.45,7.39-3.03,11.69c.38,3.92.64,7.95,1.93,11.66.89,2.58,1.41,4.91,1.86,7.57l2.26,13.42c1.48,8.79,3.38,12.46,8.52,19.95s7.9,6.77,12.63,12.16c3,3.42,7.01,5.29,10.74,7.65,3.22,2.03,6.13,3.36,10.02,3.73,2.21.22,4.19.3,6.45.05,2.4-.26,5.1.12,7.8-1.13.43,2.52-.12,4.75-.04,7.23-9.64,3.27-12.9-1.79-20.49-2.12-2.87-.12-5.19,1.51-7.38,2.93-1.37.89-2.14,1.63-2.82,3.13-3.09,6.76-2.27,14.97-5.22,18.39l-5.48,6.37c-3.92,4.55-2.01,10.62-.67,16.19l.97,4.02c1.08,4.46,2.97,8.62,4.38,13.04.54,1.71,2.02,3.01,3.19,4.25,3.5,3.69,3.83,3.84,8.48,4.75,4.1.8,8.03-.52,11.63-2.32l3.84-1.92c3.15-1.58,6.28-2.68,9.54-4.36l-.03,7.33c-3.62,2.25-7.34,3.97-11.29,5.46-2.24.84-4.14,2.08-6.25,3.11-7.03,3.41-5.38,3.59-9.84,6.34-1.6.99-2.06,2.27-2.88,3.81-1.04,1.96-1.96,3.78-2.66,5.97-2.06,6.44-3.85,12.9-5.04,19.6-.42,2.37.31,4.65.37,6.81ZM80.41,21.41c3.96-10.27,8.87-8.15,9.22-12.4.28-3.42-2.43-6.15-5.75-6.34-1.16-.07-2.4-.71-3.52-.31-2.48.87-4.97,1.87-7.26,2.93-2.44,1.13-3.4,3.02-4.24,5.34-1.97,5.5-2.94,12.97,3.45,15.75,3.17.38,6.89-1.83,8.1-4.97ZM301.77,30.14c1.01-8.29,7.03-11.11,2.16-16.57-2.46-.72-4.94.16-6.55,2.12-.42.52-1.13.78-1.45,1.44-2.02,4.13-3.12,8.77-2.51,13.44.22,1.71,1.13,3.41,1.86,4.87.61,1.22,1.96,1.72,3.09,1.61,2.81-.29,3.12-4.67,3.4-6.91ZM164.36,105.2c3.71-.72,6.37-2.49,8.71-5.3,3.01-3.61,5.01-7.83,6.95-12.16,1.26-2.82,2.74-5.45,3.21-8.54,1.16-7.64,1.84-16.68-3.52-22.74-2.12-4.79-6.12-7.68-10.74-9.88-5.3-2.53-11.09-5.47-17.1-6.31-7.9-1.1-15.6-2.73-22.99-5.65-3.57-1.41-6.34-3.23-9.36-5.43-3.95-2.88-7.94-5.46-12.12-8.03-3.85-2.37-8.12-3.95-12.59-4.04-2.2-.04-3.69,1.88-5.06,3.08-3.3,2.91-4.25,6.66-3.99,10.82s1.39,7.23,3.12,10.79c4.23,8.73,7.13,18.51,15.4,24.9,4.01,1.72,8.04,2.06,12.38,2.61,6.13.78,12.14,3.66,15.95,8.62,2.03,2.64,4.97,10.87,7.72,15.28,4.37,7.02,6.81,9.51,14.85,12.18,2.97.99,6.01.41,9.18-.21ZM347.81,119.35c3.41-2.1,6.55-4.38,9.73-6.86,6.01-4.69,9.2-8.69,10.55-16.46.16-4.43-.55-8.53-1.4-12.93s-2.66-8.64-5.43-12.19c-2.17-2.79-4.76-5.43-7.72-7.31l-8.63-5.48c-1.81-1.15-3.55-1.99-5.29-3.35-3.62-2.83-7.29-6.16-8.4-10.9-1.46-6.25-2.65-12.35-5.19-18.22-1.92-4.45-6.19-9.88-11.78-8.49-3.42.85-6.9,8.32-7.45,11.61-1.07,6.36-.08,9.19-2.78,15.52-1.31,3.06-2.34,6.04-3.99,8.96-3.53,6.23-4.63,13.32-4.21,20.56.23,3.89,2.42,7.01,4.52,10.2,1.44,2.19,3.65,3.49,5.52,5.29,2.32,2.23,4.77,4.28,6.84,6.78,12.39,14.91,6.14,24.97,22.25,26.33,4.68.4,8.93-.62,12.86-3.05ZM256.57,104.87c10.81-1.2,13.72-2.26,23.14-7.5,4.52-4.7,6.81-6.56,8.96-12.72,1.4-4,2.75-7.89,2.62-12.14-.18-6.2-.67-12.18-1.91-18.29l-1.81-8.96c-1.12-5.55-2.48-9.64-6.1-13.99-1.45-1.75-4.23-2.93-6.46-2.91-5.35.06-8.79,5.61-20.56,5.28-2.03-.06-4.11.84-6.15,1.14-4.73.7-8.77,3.29-12.74,5.7-2.03,1.23-3.46,2.72-5.21,4.22-4.77,4.11-8.66,8.71-10.94,14.68-.99,2.6-1.98,5.08-1.96,8.02.11,11.68,7.12,23.25,15.11,31.43,2.63,2.7,6.09,3.93,9.69,4.72,4.7,1.03,9.35,1.87,14.31,1.32ZM101.78,125.59c1.59-2.58,3.65-4.36,5.76-6.26l6.82-6.13,8.92-8.67c2.62-2.54,5.22-7,6.58-10.45.91-2.3.7-4.31-.23-6.55-1.18-2.83-2.56-5.4-4.98-7.36-4.09-3.32-8.83-4.89-14.11-5.14-1.28-.06-2.64-.06-4-.31-11.99-2.26-15.38-13.07-18.9-21.88l-1.82-4.56c-1.4-3.49-3.34-6.3-5.75-9.04-2.13-2.42-4.66-3.78-7.41-5.37-8.18-4.73-18.92-6.69-26.94-.81-2.35,1.72-4.79,3.32-6.88,5.4-6.82,6.78-11.62,16.2-13.2,25.7-1.02,6.13-1.67,12.08-1.32,18.28.3,5.41,1.87,13.86,6.54,16.97s15.27,7.37,20.32,12.14c5.16,5.55,4.73,13.57,11.03,17.08,8.36,4.65,16.85,8.75,26.67,7.33,3.97-.57,6.98-3.14,9.43-6.07,1.17-1.41,2.44-2.6,3.47-4.28ZM201.02,105.41c3.14-.31,6.05-1.37,8.01-3.67,2.84-3.32,4.69-7.66,4.79-12.1.04-1.56-.74-3.05-.96-4.55-.45-3.07-2.39-5.48-4.6-7.57l-4.71-4.46c-2.04-1.93-6.39-3.5-9.22-2.45-3.71,1.38-5.27,5.83-5.69,9.32-.33,2.78-.72,5.04-2.07,7.37l-3.56,6.17c-1.21,2.09-1.64,4.8-.73,6.93,3.11,7.24,12.07,7.16,18.71,5.01ZM265.25,180.1l10.77.52c3.53.17,6.91-1.1,10.32-1.98,5.78-1.5,10.85-4.37,16.03-7.2,7.41-4.05,11.64-9.43,15.42-16.83,1.34-2.63,2.02-5.19,2.74-8.04,2.34-9.32.56-10.49.47-18.16l-.05-3.9c-.07-5.65-3.75-15.32-7.45-20.58s-8.38-9.39-14.98-10.55c-3.33-.58-6.46,1.18-8.79,3.42s-4.31,4.23-6.87,6.09c-.83.6-1.32,1.52-2.31,2.1-4.58,2.67-9.57,4.84-15.04,5.29-6.06.49-12.1.53-18.06-.44l-9.02-1.47-11.27-3.03c-4.45-1.2-9.49.75-13.36,3.33-3.52,2.35-5.86,5.67-8.54,8.91-3.17,13.1.06,22.58,5.51,34.2,1.05,2.24,2.26,3.83,3.72,5.7,2.69,3.43,5.06,7.15,8.73,9.71,5.92,4.13,12.57,6.57,19.63,8.08,7.32,2.66,14.59,4.44,22.39,4.82ZM195.2,198.46c2.07-.27,3.75-1.45,5.31-2.33,1.79-1,2.19-2.74,2.88-4.47l3.47-8.69c1.64-4.1,2.37-8.04,2.12-12.47-.17-2.93-.07-5.69-.97-8.59-3.05-9.79-5.36-19.55-7.88-29.51-.76-3-1.86-5.73-3.05-8.58-1.51-3.6-4-6.96-7-9.42-2.38-1.95-5.59-2.21-8.42-2.8-10.53-2.22-20.43,2.51-25.07,1.66-4.26-.78-8.25-2.15-12.34-3.46-4.66-.48-9,.73-13.43,1.77-3.43.81-6.13,2.15-9.15,3.83-5.56,3.09-9.92,7.11-12.74,12.87-1.22,2.49-2.68,4.78-2.81,7.67-.19,4.16.27,7.91,1.56,11.85,1.61,4.94,3.53,9.61,6.8,13.72,3.55,4.46,10.06,8.66,15.25,11.05,16.34,7.53,20.43.56,35.84,13.04l7.96,6.45c4.27,3.46,9.7,5.26,15.05,6.44,2.1.46,4.39.25,6.63-.04ZM346.43,170.11c2.39-1.61,5.24-1.94,7.97-2.5,3.77-.78,7-.07,10.42,1.53,4.21,1.98,9.08,2.63,13.62,3.03,3.37.3,5.61-.86,8.19-2.49,2.2-1.39,4.14-2.38,5.38-4.91.76-1.56,2-2.99,2.1-5,.1-2.15.89-4.04,1.34-6.2.82-3.95.14-8.49-2.1-11.87-1.26-1.91-1.95-4.2-3.49-5.84-3.24-3.46-6.45-6.72-9.49-10.33-1.28-1.52-1.92-2.95-2.92-4.72-2.48-4.4-8.65-8.5-14.1-6.45-3,1.53-4.7,4.43-7.23,6.45-7.82,6.25-17.35,5.51-21.78,7.36-2.63,1.1-4.92,3.34-6.48,5.69-3.04,4.56-1.27,9.98-3.93,17.7-.75,2.17-1.31,4.25-2.43,6.28-.61,1.11-.81,2.35-1.51,3.48-1.76,2.86-2.6,6.35-1.63,9.59,1.05,3.53,4,5.82,7.62,6.18,2.64.26,5.28.83,7.91.21,5.79-1.36,8.3-4.32,12.54-7.16ZM107.83,206.09c1.95,1.92,5.12,2.6,7.36,1.05,2.01-1.4,2.78-3.97,3.01-6.36.37-3.75.53-7.41.53-11.21v-8.31c0-1.1-.32-2.64-1.34-3.12-6.1-2.88-7.43,9.66-10.07,12.91-2.22,2.74-6.85,6.86-4.42,11.21,1.05,1.88,2.78,2.99,4.92,3.83ZM265.38,244.04c4.65.34,10.19.38,13.65-2.95,2.74-2.63,2.22-7.43,2.41-10.83.21-3.66.01-6.71-1.59-10.01s-3.28-6.35-5.7-9.08c-4.13-4.66-8.82-8.75-14.02-12.22-3.24-2.16-6.59-3.69-9.26-6.58-1.44-1.55-2.58-3.36-4.18-4.83-2.66-2.44-5.81-4.21-9.2-5.51-3.67-1.41-7.56-1.41-11.46-1.54-5.18-.17-10.82,2.26-13.99,6.28-1.87,3.39-2.36,7.16-2.7,11.07-.49,5.61-2.2,11.52.65,16.34,2.32,3.92,4.95,7.89,8.63,10.83,5.43,4.33,11.38,7.69,17.65,10.76,5.06,2.48,10.22,4.31,15.47,6.35,4.35,1.7,8.81,1.57,13.63,1.92ZM175.44,256.83c4.24.78,8.24.98,12.19.54,4.63-.52,8.88-4.13,11.38-7.88,6-9,5.47-18.96,1-28.53l-8.25-8.7c-1.2-1.26-11.04-6.86-13.27-8.05l-13.05-6.96c-5.98-3.19-4.88-7.53-18.06-12.87-7.9-3.2-13.29-3.95-19.98,1.51-5.68,4.63-3.47,13.69-5.37,20.25-.84,2.9-2.35,5.56-2.86,8.62-.64,3.85-.9,7.79-.53,11.66.31,3.25,2.18,5.98,3.86,8.59s3.69,4.46,6.07,6.3c1.07.82,1.82,1.68,3.21,2.16,11.09,3.82,13.04,1.43,23.05,4.67,2.36.77,4.79,1.12,6.92,2.47,4.22,2.68,8.48,5.24,13.68,6.2ZM276.51,203.89c2.77.36,3.56-1.79,4.76-3.35,2.44-3.17,3.21-6.84.96-10.54-.94-1.54-2.93-2.52-4.87-2.92-3.76-.78-12.52-2.55-14.66,1.34-.61,1.12-.15,3.18.49,4.2,1.98,3.19,6.36,4.14,9.33,7.62,1.12,1.31,2.24,2.97,3.99,3.65Z"/>
</svg>